<svg xmlns="http://www.w3.org/2000/svg" width="197" height="43" fill="none"><path d="M196.811.19H53.935v42.62h142.876V.19z" fill="#fff"/><path d="M196.62.376v42.245H54.125V.376H196.62zM197 0H53.745v42.998H197V0z" fill="#231F20"/><path d="M72.902 22.81c1.129-.75 1.66-1.994 1.66-3.844v-4.608c0-3.306-1.684-4.984-5.001-4.984h-5.677v25.562h3.602V24.518h1.727c1.295 0 1.79.499 1.79 1.783v8.635h3.602v-8.74c-.009-1.721-.538-2.797-1.703-3.386zm-5.416-10.093h1.966c1.08 0 1.511.43 1.511 1.506v5.315c0 1.216-.498 1.721-1.726 1.721h-1.753l.002-8.542zM87.894 23.56h4.8v-3.34h-4.8v-7.466h4.978V9.377h-8.58v25.559h8.651v-3.378h-5.049v-7.997zM109.679 30.306c0 1.065-.432 1.506-1.511 1.506h-.783c-1.08 0-1.511-.43-1.511-1.506v-16.3c0-1.076.431-1.506 1.511-1.506h.712c1.079 0 1.511.43 1.511 1.506v4.913h3.531v-4.842c0-3.261-1.658-4.916-4.93-4.916h-.924c-3.319 0-5.001 1.678-5.001 4.987v16.017c0 3.306 1.682 4.984 5.001 4.984h.928c3.32 0 5.001-1.678 5.001-4.985V24.65h-3.535v5.657zM131.782 22.81c1.128-.75 1.659-1.994 1.659-3.844v-4.608c0-3.306-1.681-4.984-5.001-4.984h-5.676v25.562h3.602V24.518h1.727c1.295 0 1.791.499 1.791 1.783v8.635h3.603v-8.74c-.009-1.721-.54-2.797-1.705-3.386zm-5.416-10.093h1.969c1.068 0 1.51.43 1.51 1.506v5.315c0 1.216-.496 1.721-1.726 1.721h-1.753v-8.542zM150.425 30.306c0 1.065-.432 1.506-1.511 1.506h-.676c-1.079 0-1.511-.43-1.511-1.506V9.375h-3.591v20.79c0 3.307 1.683 4.985 5.001 4.985h.889c3.318 0 5.001-1.678 5.001-4.985V9.375h-3.602v20.932zM168.107 9.377h-3.602v25.56h3.602V9.378zM177.626 9.377v3.377h3.734v22.182h3.6V12.754h3.734V9.377h-11.068zM50.738 0H0v43h50.738V0z" fill="#000"/><path d="M7.136 36.218a67.2 67.2 0 0 1 12.558-3.115l-1.017-1.99C12.921 32.49 9.335 34.34 7.786 35.63c-.322.267-.844.656-.65.588zM32.73 29.304l-1.93 3.164c5.626.2 8.99 1.153 8.99 1.153l2.045-4.252c-3.275-.16-6.307-.17-9.105-.065zM30.725 32.466l-1.56-2.955a73.169 73.169 0 0 0-7.26.925l-1.586 2.58a61.6 61.6 0 0 1 10.406-.55z" fill="#D7182A"/><path d="M25.355 10.732l5.35 13.7 9.782-19.19h-.002L30.24 18.672l.945.27-5.819-13.181-5.82 13.181.947-.27-10.249-13.43h-.002l9.784 19.19 5.351-13.7" fill="#fff"/><path d="M25.366 25.869l5.342 12.153V38s4.597-11.795 5.987-15.32c1.848-4.687 6.387-17.437 6.387-17.437l-12.46 25.37-.329.671.803 1.007.026-.075-5.759-14.198-5.758 14.198.024.075.805-1.007-.324-.671L7.64 5.242s4.533 12.75 6.39 17.437c1.39 3.525 5.987 15.32 5.987 15.32v.023L25.36 25.87" fill="#fff"/></svg>